<svg width="151" height="40" viewBox="0 0 151 40" fill="none" xmlns="http://www.w3.org/2000/svg">
<path d="M8.92 10.08C8.55333 10.08 8.18333 10.0667 7.81 10.04C7.43667 10.02 7.11 9.97333 6.83 9.9V3.17C6.97667 3.14333 7.13333 3.12 7.3 3.1C7.46667 3.07333 7.63667 3.05333 7.81 3.04C7.98333 3.02667 8.15333 3.01667 8.32 3.01C8.49333 3.00333 8.65667 3 8.81 3C9.23 3 9.62 3.03333 9.98 3.1C10.34 3.16 10.65 3.26333 10.91 3.41C11.1767 3.55667 11.3833 3.75 11.53 3.99C11.6767 4.23 11.75 4.52667 11.75 4.88C11.75 5.20667 11.67 5.48667 11.51 5.72C11.3567 5.95333 11.14 6.14 10.86 6.28C11.28 6.42 11.59 6.62667 11.79 6.9C11.99 7.17333 12.09 7.52 12.09 7.94C12.09 8.65333 11.83 9.19 11.31 9.55C10.79 9.90333 9.99333 10.08 8.92 10.08ZM8.07 6.88V8.99C8.21 9.00333 8.36 9.01333 8.52 9.02C8.68 9.02667 8.82667 9.03 8.96 9.03C9.22 9.03 9.46 9.01333 9.68 8.98C9.90667 8.94667 10.1 8.89 10.26 8.81C10.4267 8.72333 10.5567 8.61 10.65 8.47C10.75 8.33 10.8 8.15 10.8 7.93C10.8 7.53667 10.6567 7.26333 10.37 7.11C10.0833 6.95667 9.68667 6.88 9.18 6.88H8.07ZM8.07 5.89H8.96C9.44 5.89 9.81667 5.82333 10.09 5.69C10.3633 5.55 10.5 5.30333 10.5 4.95C10.5 4.61667 10.3567 4.38 10.07 4.24C9.79 4.1 9.42333 4.03 8.97 4.03C8.77667 4.03 8.60333 4.03333 8.45 4.04C8.30333 4.04667 8.17667 4.05667 8.07 4.07V5.89ZM19.7023 10V3.07H24.1523V4.14H20.9623V5.85H23.8023V6.9H20.9623V8.93H24.3923V10H19.7023ZM42.8256 6.14C43.1256 5.64 43.419 5.13333 43.7056 4.62C43.9923 4.10667 44.2523 3.59 44.4856 3.07H45.8856C45.5123 3.77667 45.1223 4.48 44.7156 5.18C44.3156 5.87333 43.8856 6.57333 43.4256 7.28V10H42.1656V7.3C41.7056 6.58667 41.2723 5.88 40.8656 5.18C40.459 4.48 40.069 3.77667 39.6956 3.07H41.1756C41.409 3.59 41.6656 4.10667 41.9456 4.62C42.2256 5.13333 42.519 5.64 42.8256 6.14ZM53.7143 6.53C53.7143 6.91 53.761 7.25667 53.8543 7.57C53.9476 7.87667 54.081 8.14 54.2543 8.36C54.4343 8.57333 54.651 8.74 54.9043 8.86C55.1576 8.98 55.4443 9.04 55.7643 9.04C56.0776 9.04 56.361 8.98 56.6143 8.86C56.8676 8.74 57.081 8.57333 57.2543 8.36C57.4343 8.14 57.571 7.87667 57.6643 7.57C57.7576 7.25667 57.8043 6.91 57.8043 6.53C57.8043 6.15 57.7576 5.80667 57.6643 5.5C57.571 5.18667 57.4343 4.92333 57.2543 4.71C57.081 4.49 56.8676 4.32 56.6143 4.2C56.361 4.08 56.0776 4.02 55.7643 4.02C55.4443 4.02 55.1576 4.08 54.9043 4.2C54.651 4.32 54.4343 4.49 54.2543 4.71C54.081 4.93 53.9476 5.19333 53.8543 5.5C53.761 5.80667 53.7143 6.15 53.7143 6.53ZM59.1243 6.53C59.1243 7.12333 59.0343 7.64667 58.8543 8.1C58.681 8.55333 58.441 8.93333 58.1343 9.24C57.8343 9.54 57.481 9.76667 57.0743 9.92C56.6676 10.0733 56.2343 10.15 55.7743 10.15C55.3143 10.15 54.8776 10.0733 54.4643 9.92C54.0576 9.76667 53.701 9.54 53.3943 9.24C53.0943 8.93333 52.8543 8.55333 52.6743 8.1C52.4943 7.64667 52.4043 7.12333 52.4043 6.53C52.4043 5.93667 52.4943 5.41667 52.6743 4.97C52.8543 4.51667 53.0976 4.13667 53.4043 3.83C53.7176 3.52333 54.0776 3.29333 54.4843 3.14C54.891 2.98667 55.321 2.91 55.7743 2.91C56.2276 2.91 56.6576 2.98667 57.0643 3.14C57.471 3.29333 57.8243 3.52333 58.1243 3.83C58.431 4.13667 58.6743 4.51667 58.8543 4.97C59.0343 5.41667 59.1243 5.93667 59.1243 6.53ZM69.4766 10.15C69.0032 10.15 68.5966 10.0833 68.2566 9.95C67.9166 9.81 67.6332 9.61667 67.4066 9.37C67.1866 9.12333 67.0232 8.83333 66.9166 8.5C66.8099 8.16667 66.7566 7.8 66.7566 7.4V3.07H68.0266V7.28C68.0266 7.59333 68.0599 7.86333 68.1266 8.09C68.1999 8.31 68.2999 8.49 68.4266 8.63C68.5599 8.77 68.7132 8.87333 68.8866 8.94C69.0666 9.00667 69.2666 9.04 69.4866 9.04C69.7066 9.04 69.9066 9.00667 70.0866 8.94C70.2666 8.87333 70.4199 8.77 70.5466 8.63C70.6799 8.49 70.7799 8.31 70.8466 8.09C70.9199 7.86333 70.9566 7.59333 70.9566 7.28V3.07H72.2266V7.4C72.2266 7.8 72.1699 8.16667 72.0566 8.5C71.9499 8.83333 71.7832 9.12333 71.5566 9.37C71.3366 9.61667 71.0532 9.81 70.7066 9.95C70.3599 10.0833 69.9499 10.15 69.4766 10.15ZM82.0478 3C83.0478 3 83.8111 3.18333 84.3378 3.55C84.8711 3.91667 85.1378 4.47667 85.1378 5.23C85.1378 6.17 84.6745 6.80667 83.7478 7.14C83.8745 7.29333 84.0178 7.48 84.1778 7.7C84.3378 7.92 84.5011 8.16 84.6678 8.42C84.8345 8.67333 84.9945 8.93667 85.1478 9.21C85.3011 9.47667 85.4378 9.74 85.5578 10H84.1478C84.0211 9.76 83.8845 9.52 83.7378 9.28C83.5911 9.03333 83.4411 8.79667 83.2878 8.57C83.1411 8.33667 82.9945 8.12 82.8478 7.92C82.7011 7.71333 82.5645 7.53 82.4378 7.37C82.3445 7.37667 82.2645 7.38 82.1978 7.38C82.1311 7.38 82.0678 7.38 82.0078 7.38H81.3978V10H80.1378V3.17C80.4445 3.10333 80.7711 3.06 81.1178 3.04C81.4645 3.01333 81.7745 3 82.0478 3ZM82.1378 4.09C81.8711 4.09 81.6245 4.1 81.3978 4.12V6.36H81.9478C82.2545 6.36 82.5245 6.34333 82.7578 6.31C82.9911 6.27667 83.1845 6.21667 83.3378 6.13C83.4978 6.04333 83.6178 5.92667 83.6978 5.78C83.7778 5.63333 83.8178 5.44667 83.8178 5.22C83.8178 5.00667 83.7778 4.82667 83.6978 4.68C83.6178 4.53333 83.5011 4.41667 83.3478 4.33C83.2011 4.24333 83.0245 4.18333 82.8178 4.15C82.6111 4.11 82.3845 4.09 82.1378 4.09ZM94.5143 9.06C94.9676 9.06 95.2976 8.98333 95.5043 8.83C95.711 8.67667 95.8143 8.46 95.8143 8.18C95.8143 8.01333 95.7776 7.87 95.7043 7.75C95.6376 7.63 95.5376 7.52333 95.4043 7.43C95.2776 7.33 95.121 7.24 94.9343 7.16C94.7476 7.07333 94.5343 6.99 94.2943 6.91C94.0543 6.82333 93.821 6.73 93.5943 6.63C93.3743 6.52333 93.1776 6.39333 93.0043 6.24C92.8376 6.08667 92.701 5.90333 92.5943 5.69C92.4943 5.47667 92.4443 5.22 92.4443 4.92C92.4443 4.29333 92.661 3.80333 93.0943 3.45C93.5276 3.09 94.1176 2.91 94.8643 2.91C95.2976 2.91 95.681 2.96 96.0143 3.06C96.3543 3.15333 96.621 3.25667 96.8143 3.37L96.4243 4.39C96.1976 4.26333 95.9476 4.16667 95.6743 4.1C95.4076 4.03333 95.131 4 94.8443 4C94.5043 4 94.2376 4.07 94.0443 4.21C93.8576 4.35 93.7643 4.54667 93.7643 4.8C93.7643 4.95333 93.7943 5.08667 93.8543 5.2C93.921 5.30667 94.011 5.40333 94.1243 5.49C94.2443 5.57667 94.381 5.65667 94.5343 5.73C94.6943 5.80333 94.8676 5.87333 95.0543 5.94C95.381 6.06 95.671 6.18333 95.9243 6.31C96.1843 6.43 96.401 6.57667 96.5743 6.75C96.7543 6.91667 96.891 7.11667 96.9843 7.35C97.0776 7.57667 97.1243 7.85333 97.1243 8.18C97.1243 8.80667 96.901 9.29333 96.4543 9.64C96.0143 9.98 95.3676 10.15 94.5143 10.15C94.2276 10.15 93.9643 10.13 93.7243 10.09C93.491 10.0567 93.281 10.0133 93.0943 9.96C92.9143 9.90667 92.7576 9.85333 92.6243 9.8C92.491 9.74 92.3843 9.68667 92.3043 9.64L92.6743 8.61C92.8543 8.71 93.0976 8.81 93.4043 8.91C93.711 9.01 94.081 9.06 94.5143 9.06ZM104.535 10V3.07H108.985V4.14H105.795V5.85H108.635V6.9H105.795V8.93H109.225V10H104.535ZM121.074 8.91V10H116.694V3.07H117.954V8.91H121.074ZM128.336 10V3.07H132.716V4.14H129.596V5.91H132.366V6.98H129.596V10H128.336ZM15.792 34C15.66 33.568 15.51 33.124 15.342 32.668C15.186 32.212 15.03 31.756 14.874 31.3H10.014C9.858 31.756 9.696 32.212 9.528 32.668C9.372 33.124 9.228 33.568 9.096 34H6.18C6.648 32.656 7.092 31.414 7.512 30.274C7.932 29.134 8.34 28.06 8.736 27.052C9.144 26.044 9.54 25.09 9.924 24.19C10.32 23.278 10.728 22.39 11.148 21.526H13.83C14.238 22.39 14.64 23.278 15.036 24.19C15.432 25.09 15.828 26.044 16.224 27.052C16.632 28.06 17.046 29.134 17.466 30.274C17.886 31.414 18.33 32.656 18.798 34H15.792ZM12.426 24.352C12.366 24.532 12.276 24.778 12.156 25.09C12.036 25.402 11.898 25.762 11.742 26.17C11.586 26.578 11.412 27.028 11.22 27.52C11.04 28.012 10.854 28.528 10.662 29.068H14.208C14.016 28.528 13.83 28.012 13.65 27.52C13.47 27.028 13.296 26.578 13.128 26.17C12.972 25.762 12.834 25.402 12.714 25.09C12.594 24.778 12.498 24.532 12.426 24.352ZM25.6436 34.252C23.6156 34.252 22.0676 33.688 20.9996 32.56C19.9436 31.432 19.4156 29.83 19.4156 27.754C19.4156 26.722 19.5776 25.804 19.9016 25C20.2256 24.184 20.6696 23.5 21.2336 22.948C21.7976 22.384 22.4696 21.958 23.2496 21.67C24.0296 21.382 24.8756 21.238 25.7876 21.238C26.3156 21.238 26.7956 21.28 27.2276 21.364C27.6596 21.436 28.0376 21.526 28.3616 21.634C28.6856 21.73 28.9556 21.832 29.1716 21.94C29.3876 22.048 29.5436 22.132 29.6396 22.192L28.8296 24.46C28.4456 24.256 27.9956 24.082 27.4796 23.938C26.9756 23.794 26.3996 23.722 25.7516 23.722C25.3196 23.722 24.8936 23.794 24.4736 23.938C24.0656 24.082 23.6996 24.316 23.3756 24.64C23.0636 24.952 22.8116 25.36 22.6196 25.864C22.4276 26.368 22.3316 26.98 22.3316 27.7C22.3316 28.276 22.3916 28.816 22.5116 29.32C22.6436 29.812 22.8476 30.238 23.1236 30.598C23.4116 30.958 23.7836 31.246 24.2396 31.462C24.6956 31.666 25.2476 31.768 25.8956 31.768C26.3036 31.768 26.6696 31.744 26.9936 31.696C27.3176 31.648 27.6056 31.594 27.8576 31.534C28.1096 31.462 28.3316 31.384 28.5236 31.3C28.7156 31.216 28.8896 31.138 29.0456 31.066L29.8196 33.316C29.4236 33.556 28.8656 33.772 28.1456 33.964C27.4256 34.156 26.5916 34.252 25.6436 34.252ZM36.8585 34.252C34.8305 34.252 33.2825 33.688 32.2145 32.56C31.1585 31.432 30.6305 29.83 30.6305 27.754C30.6305 26.722 30.7925 25.804 31.1165 25C31.4405 24.184 31.8845 23.5 32.4485 22.948C33.0125 22.384 33.6845 21.958 34.4645 21.67C35.2445 21.382 36.0905 21.238 37.0025 21.238C37.5305 21.238 38.0105 21.28 38.4425 21.364C38.8745 21.436 39.2525 21.526 39.5765 21.634C39.9005 21.73 40.1705 21.832 40.3865 21.94C40.6025 22.048 40.7585 22.132 40.8545 22.192L40.0445 24.46C39.6605 24.256 39.2105 24.082 38.6945 23.938C38.1905 23.794 37.6145 23.722 36.9665 23.722C36.5345 23.722 36.1085 23.794 35.6885 23.938C35.2805 24.082 34.9145 24.316 34.5905 24.64C34.2785 24.952 34.0265 25.36 33.8345 25.864C33.6425 26.368 33.5465 26.98 33.5465 27.7C33.5465 28.276 33.6065 28.816 33.7265 29.32C33.8585 29.812 34.0625 30.238 34.3385 30.598C34.6265 30.958 34.9985 31.246 35.4545 31.462C35.9105 31.666 36.4625 31.768 37.1105 31.768C37.5185 31.768 37.8845 31.744 38.2085 31.696C38.5325 31.648 38.8205 31.594 39.0725 31.534C39.3245 31.462 39.5465 31.384 39.7385 31.3C39.9305 31.216 40.1045 31.138 40.2605 31.066L41.0345 33.316C40.6385 33.556 40.0805 33.772 39.3605 33.964C38.6405 34.156 37.8065 34.252 36.8585 34.252ZM42.8423 34V21.526H51.2663V23.884H45.6503V26.332H50.6363V28.636H45.6503V31.642H51.6803V34H42.8423ZM62.0924 31.588V34H53.7584V21.526H56.5664V31.588H62.0924ZM63.9009 34V21.526H72.3249V23.884H66.7089V26.332H71.6949V28.636H66.7089V31.642H72.7389V34H63.9009ZM78.471 21.382C80.343 21.382 81.777 21.718 82.773 22.39C83.769 23.05 84.267 24.082 84.267 25.486C84.267 26.362 84.063 27.076 83.655 27.628C83.259 28.168 82.683 28.594 81.927 28.906C82.179 29.218 82.443 29.578 82.719 29.986C82.995 30.382 83.265 30.802 83.529 31.246C83.805 31.678 84.069 32.134 84.321 32.614C84.573 33.082 84.807 33.544 85.023 34H81.873C81.645 33.592 81.411 33.178 81.171 32.758C80.943 32.338 80.703 31.93 80.451 31.534C80.211 31.138 79.971 30.766 79.731 30.418C79.491 30.058 79.251 29.734 79.011 29.446H77.625V34H74.817V21.706C75.429 21.586 76.059 21.502 76.707 21.454C77.367 21.406 77.955 21.382 78.471 21.382ZM78.633 23.776C78.429 23.776 78.243 23.782 78.075 23.794C77.919 23.806 77.769 23.818 77.625 23.83V27.214H78.417C79.473 27.214 80.229 27.082 80.685 26.818C81.141 26.554 81.369 26.104 81.369 25.468C81.369 24.856 81.135 24.424 80.667 24.172C80.211 23.908 79.533 23.776 78.633 23.776ZM95.7373 34C95.6053 33.568 95.4553 33.124 95.2873 32.668C95.1313 32.212 94.9753 31.756 94.8193 31.3H89.9593C89.8033 31.756 89.6413 32.212 89.4733 32.668C89.3173 33.124 89.1733 33.568 89.0413 34H86.1253C86.5933 32.656 87.0373 31.414 87.4573 30.274C87.8773 29.134 88.2853 28.06 88.6813 27.052C89.0893 26.044 89.4853 25.09 89.8693 24.19C90.2653 23.278 90.6733 22.39 91.0933 21.526H93.7753C94.1833 22.39 94.5853 23.278 94.9813 24.19C95.3773 25.09 95.7733 26.044 96.1693 27.052C96.5773 28.06 96.9913 29.134 97.4113 30.274C97.8313 31.414 98.2753 32.656 98.7433 34H95.7373ZM92.3713 24.352C92.3113 24.532 92.2213 24.778 92.1013 25.09C91.9813 25.402 91.8433 25.762 91.6873 26.17C91.5313 26.578 91.3573 27.028 91.1653 27.52C90.9853 28.012 90.7993 28.528 90.6073 29.068H94.1533C93.9613 28.528 93.7753 28.012 93.5953 27.52C93.4153 27.028 93.2413 26.578 93.0733 26.17C92.9173 25.762 92.7793 25.402 92.6593 25.09C92.5393 24.778 92.4433 24.532 92.3713 24.352ZM108.133 21.526V23.92H104.371V34H101.563V23.92H97.8014V21.526H108.133ZM109.938 34V21.526H118.362V23.884H112.746V26.332H117.732V28.636H112.746V31.642H118.776V34H109.938ZM123.662 31.714C123.794 31.726 123.944 31.738 124.112 31.75C124.292 31.75 124.502 31.75 124.742 31.75C126.146 31.75 127.184 31.396 127.856 30.688C128.54 29.98 128.882 29.002 128.882 27.754C128.882 26.446 128.558 25.456 127.91 24.784C127.262 24.112 126.236 23.776 124.832 23.776C124.64 23.776 124.442 23.782 124.238 23.794C124.034 23.794 123.842 23.806 123.662 23.83V31.714ZM131.78 27.754C131.78 28.834 131.612 29.776 131.276 30.58C130.94 31.384 130.46 32.05 129.836 32.578C129.224 33.106 128.474 33.502 127.586 33.766C126.698 34.03 125.702 34.162 124.598 34.162C124.094 34.162 123.506 34.138 122.834 34.09C122.162 34.054 121.502 33.97 120.854 33.838V21.688C121.502 21.568 122.174 21.49 122.87 21.454C123.578 21.406 124.184 21.382 124.688 21.382C125.756 21.382 126.722 21.502 127.586 21.742C128.462 21.982 129.212 22.36 129.836 22.876C130.46 23.392 130.94 24.052 131.276 24.856C131.612 25.66 131.78 26.626 131.78 27.754Z" fill="white"/>
<line x1="0.5" y1="3" x2="0.5" y2="34" stroke="#5F51FF"/>
<path d="M150.302 14.8387C150.891 14.2553 150.895 13.3056 150.311 12.7174L140.805 3.13151C140.222 2.54327 139.272 2.5393 138.684 3.12262C138.096 3.70595 138.092 4.65569 138.675 5.24392L147.125 13.7647L138.604 22.2143C138.016 22.7977 138.012 23.7474 138.595 24.3356C139.179 24.9239 140.128 24.9279 140.717 24.3445L150.302 14.8387ZM41.9743 14.8241L149.24 15.2736L149.253 12.2736L41.9869 11.8241L41.9743 14.8241Z" fill="#5F51FF"/>
</svg>
